<mxfile host="65bd71144e">
    <diagram id="TiV8qAgS4MWcFVKaDhC-" name="Page-1">
        <mxGraphModel dx="662" dy="467" grid="1" gridSize="10" guides="1" tooltips="1" connect="1" arrows="1" fold="1" page="1" pageScale="1" pageWidth="850" pageHeight="1100" math="0" shadow="0">
            <root>
                <mxCell id="0"/>
                <mxCell id="1" parent="0"/>
                <mxCell id="2" value="" style="rounded=0;whiteSpace=wrap;html=1;fillColor=#FFFFFF;" vertex="1" parent="1">
                    <mxGeometry x="30" y="20" width="680" height="370" as="geometry"/>
                </mxCell>
                <mxCell id="5" value="Applicação" style="rounded=0;whiteSpace=wrap;html=1;fillColor=#FFFFFF;strokeColor=#666666;fontColor=#0000FF;" vertex="1" parent="1">
                    <mxGeometry x="130" y="90" width="420" height="40" as="geometry"/>
                </mxCell>
                <mxCell id="6" value="Domain" style="rounded=0;whiteSpace=wrap;html=1;fillColor=#FFFFFF;strokeColor=#666666;fontColor=#0000FF;" vertex="1" parent="1">
                    <mxGeometry x="130" y="130" width="420" height="100" as="geometry"/>
                </mxCell>
                <mxCell id="8" value="Infra" style="rounded=0;whiteSpace=wrap;html=1;fillColor=#FFFFFF;strokeColor=#666666;fontColor=#0000FF;" vertex="1" parent="1">
                    <mxGeometry x="130" y="230" width="420" height="40" as="geometry"/>
                </mxCell>
                <mxCell id="11" value="API RestFull" style="rounded=0;whiteSpace=wrap;html=1;fillColor=#FFFFFF;strokeColor=#666666;fontColor=#0000FF;" vertex="1" parent="1">
                    <mxGeometry x="130" y="50" width="420" height="40" as="geometry"/>
                </mxCell>
            </root>
        </mxGraphModel>
    </diagram>
    <diagram id="Xj83iQg8WwxtiI3-xeWj" name="Page-2">
        <mxGraphModel dx="662" dy="467" grid="1" gridSize="10" guides="1" tooltips="1" connect="1" arrows="1" fold="1" page="1" pageScale="1" pageWidth="850" pageHeight="1100" math="0" shadow="0">
            <root>
                <mxCell id="0"/>
                <mxCell id="1" parent="0"/>
                <mxCell id="TwNACJ12D-wSHle7MF4_-1" value="" style="rounded=0;whiteSpace=wrap;html=1;fillColor=#FFFFFF;" vertex="1" parent="1">
                    <mxGeometry x="30" y="20" width="680" height="370" as="geometry"/>
                </mxCell>
                <mxCell id="TwNACJ12D-wSHle7MF4_-5" style="edgeStyle=none;html=1;entryX=0.005;entryY=0.63;entryDx=0;entryDy=0;entryPerimeter=0;strokeColor=#007FFF;strokeWidth=2;fontColor=#0000FF;" edge="1" parent="1" source="TwNACJ12D-wSHle7MF4_-2" target="TwNACJ12D-wSHle7MF4_-3">
                    <mxGeometry relative="1" as="geometry"/>
                </mxCell>
                <mxCell id="TwNACJ12D-wSHle7MF4_-2" value="" style="sketch=0;aspect=fixed;pointerEvents=1;shadow=0;dashed=0;html=1;strokeColor=none;labelPosition=center;verticalLabelPosition=bottom;verticalAlign=top;align=center;fillColor=#00188D;shape=mxgraph.mscae.enterprise.client_application;fontColor=#0000FF;" vertex="1" parent="1">
                    <mxGeometry x="100" y="90" width="50" height="32" as="geometry"/>
                </mxCell>
                <mxCell id="TwNACJ12D-wSHle7MF4_-8" style="edgeStyle=none;html=1;entryX=0.5;entryY=0;entryDx=0;entryDy=0;entryPerimeter=0;strokeColor=#007FFF;strokeWidth=2;fontColor=#0000FF;" edge="1" parent="1" source="TwNACJ12D-wSHle7MF4_-3" target="TwNACJ12D-wSHle7MF4_-7">
                    <mxGeometry relative="1" as="geometry"/>
                </mxCell>
                <mxCell id="TwNACJ12D-wSHle7MF4_-3" value="" style="sketch=0;html=1;dashed=0;whitespace=wrap;fillColor=#2875E2;strokeColor=#ffffff;points=[[0.005,0.63,0],[0.1,0.2,0],[0.9,0.2,0],[0.5,0,0],[0.995,0.63,0],[0.72,0.99,0],[0.5,1,0],[0.28,0.99,0]];verticalLabelPosition=bottom;align=center;verticalAlign=top;shape=mxgraph.kubernetes.icon;prIcon=api;fontColor=#0000FF;" vertex="1" parent="1">
                    <mxGeometry x="200" y="74" width="50" height="48" as="geometry"/>
                </mxCell>
                <mxCell id="TwNACJ12D-wSHle7MF4_-7" value="Produtos" style="sketch=0;points=[[0,0,0],[0.25,0,0],[0.5,0,0],[0.75,0,0],[1,0,0],[0,1,0],[0.25,1,0],[0.5,1,0],[0.75,1,0],[1,1,0],[0,0.25,0],[0,0.5,0],[0,0.75,0],[1,0.25,0],[1,0.5,0],[1,0.75,0]];outlineConnect=0;fontColor=#232F3E;gradientColor=#FF4F8B;gradientDirection=north;fillColor=#BC1356;strokeColor=#ffffff;dashed=0;verticalLabelPosition=bottom;verticalAlign=top;align=center;html=1;fontSize=12;fontStyle=0;aspect=fixed;shape=mxgraph.aws4.resourceIcon;resIcon=mxgraph.aws4.sqs;" vertex="1" parent="1">
                    <mxGeometry x="186" y="180" width="78" height="78" as="geometry"/>
                </mxCell>
            </root>
        </mxGraphModel>
    </diagram>
</mxfile>